<svg width="323" height="96" viewBox="0 0 323 96" fill="none" xmlns="http://www.w3.org/2000/svg">
<path d="M289.914 67.0464C289.914 70.9824 292.22 73.9776 296.85 73.9776H304.651C309.281 73.9776 311.587 70.9824 311.587 67.0464V40.8576C311.587 36.9216 309.281 33.9264 304.651 33.9264H296.85C292.22 33.9264 289.914 36.9216 289.914 40.8576V67.0464ZM278.943 41.7024C278.943 31.8528 285.802 24.1536 296.504 24.1536H304.997C315.718 24.1536 322.558 31.8528 322.558 41.7024V66.8736C322.558 76.7232 315.699 84.4224 304.997 84.4224H296.504C285.783 84.4224 278.943 76.7232 278.943 66.8736V41.7024ZM246.549 34.2528V84.4416H257.52V34.2528H273.121V24.1536H230.948V34.2528H246.549ZM215.02 67.1424C215.02 71.0784 212.541 74.0736 207.987 74.0736H194.711V57.984H207.987C212.522 57.984 215.02 60.9024 215.02 64.8384V67.1424ZM207.814 33.8304C211.849 33.8304 213.732 36.4032 213.732 39.9168V42.2208C213.732 45.7344 211.849 48.384 207.814 48.384H194.711V33.8304H207.814ZM216.48 52.7616C222.398 51.0528 224.876 46.08 224.876 40.8576V39.3984C224.876 30.3168 218.612 24.1536 208.333 24.1536H183.74V84.4416H208.16C219.035 84.4416 226.163 78.1824 226.163 68.7744V66.4704C226.163 60.48 223.512 55.5072 216.48 53.8752V52.7616ZM157.34 53.952L171.309 36.3072C172.346 34.944 172.769 33.7344 172.769 32.0256V24.1536H161.625V29.6256C161.625 30.6624 161.375 31.4304 160.76 32.2752L150.385 46.4832L140.01 32.1792C139.414 31.3152 139.145 30.5472 139.145 29.5296V24.1344H128.001V32.0064C128.001 33.7152 128.424 34.9248 129.461 36.288L143.257 53.9328L129.039 72.3456C128.001 73.632 127.578 74.9184 127.578 76.6272V84.4224H138.722V78.8544C138.722 77.8176 138.972 77.0496 139.587 76.2048L150.385 61.9008L161.183 76.1088C161.779 76.9728 162.048 77.7408 162.048 78.7584V84.4032H173.191V76.608C173.191 74.8992 172.769 73.6896 171.731 72.3264L157.34 53.952ZM46.7851 71.8464L62.2137 62.9376V54.0288H31.3566V62.9376L46.7851 71.8464ZM46.7851 83.9232L20.9044 68.928V54.0288H10.4522V75.0144L46.7851 96L83.1181 75.0144V54.0288H72.6659V68.928L46.7851 83.9232ZM46.7851 36.2304L62.2137 45.1392V54.048H72.6659V39.0528L46.7851 24.1536L20.9044 39.0528V54.048H31.3566V45.1392L46.7851 36.2304ZM0 54.0288H10.4522V33.0624L46.7851 12.0768L83.1181 33.0624V54.048H93.5703V27.0528L46.7851 0L0 27.0528V54.0288Z" fill="#000D23"/>
</svg>
